HIERARCHY
ROOT Hips
{
  OFFSET 0.000000 95.000000 0.000000
  CHANNELS 6 Xposition Yposition Zposition Zrotation Xrotation Yrotation
  JOINT Spine
  {
    OFFSET 0.000000 10.000000 0.000000
    CHANNELS 3 Zrotation Xrotation Yrotation
    JOINT Spine1
    {
      OFFSET 0.000000 12.000000 0.000000
      CHANNELS 3 Zrotation Xrotation Yrotation
      JOINT Spine2
      {
        OFFSET 0.000000 12.000000 0.000000
        CHANNELS 3 Zrotation Xrotation Yrotation
        JOINT Neck
        {
          OFFSET 0.000000 10.000000 0.000000
          CHANNELS 3 Zrotation Xrotation Yrotation
          JOINT Head
          {
            OFFSET 0.000000 8.000000 0.000000
            CHANNELS 3 Zrotation Xrotation Yrotation
            End Site
            {
              OFFSET 0.000000 10.000000 0.000000
            }
          }
        }
        JOINT LeftShoulder
        {
          OFFSET 6.000000 8.000000 0.000000
          CHANNELS 3 Zrotation Xrotation Yrotation
          JOINT LeftArm
          {
            OFFSET 12.000000 0.000000 0.000000
            CHANNELS 3 Zrotation Xrotation Yrotation
            JOINT LeftForeArm
            {
              OFFSET 24.000000 0.000000 0.000000
              CHANNELS 3 Zrotation Xrotation Yrotation
              JOINT LeftHand
              {
                OFFSET 22.000000 0.000000 0.000000
                CHANNELS 3 Zrotation Xrotation Yrotation
                JOINT LeftHandThumb1
                {
                  OFFSET 1.800000 -1.400000 0.500000
                  CHANNELS 3 Zrotation Xrotation Yrotation
                  JOINT LeftHandThumb2
                  {
                    OFFSET 2.400000 0.000000 0.000000
                    CHANNELS 3 Zrotation Xrotation Yrotation
                    JOINT LeftHandThumb3
                    {
                      OFFSET 1.900000 0.000000 0.000000
                      CHANNELS 3 Zrotation Xrotation Yrotation
                      End Site
                      {
                        OFFSET 1.600000 0.000000 0.000000
                      }
                    }
                  }
                }
                JOINT LeftHandIndex1
                {
                  OFFSET 6.600000 1.200000 0.300000
                  CHANNELS 3 Zrotation Xrotation Yrotation
                  JOINT LeftHandIndex2
                  {
                    OFFSET 2.000000 0.000000 0.000000
                    CHANNELS 3 Zrotation Xrotation Yrotation
                    JOINT LeftHandIndex3
                    {
                      OFFSET 1.200000 0.000000 0.000000
                      CHANNELS 3 Zrotation Xrotation Yrotation
                      End Site
                      {
                        OFFSET 1.000000 0.000000 0.000000
                      }
                    }
                  }
                }
                JOINT LeftHandMiddle1
                {
                  OFFSET 7.200000 0.000000 0.300000
                  CHANNELS 3 Zrotation Xrotation Yrotation
                  JOINT LeftHandMiddle2
                  {
                    OFFSET 3.000000 0.000000 0.000000
                    CHANNELS 3 Zrotation Xrotation Yrotation
                    JOINT LeftHandMiddle3
                    {
                      OFFSET 2.000000 0.000000 0.000000
                      CHANNELS 3 Zrotation Xrotation Yrotation
                      End Site
                      {
                        OFFSET 1.600000 0.000000 0.000000
                      }
                    }
                  }
                }
                JOINT LeftHandRing1
                {
                  OFFSET 7.100000 -1.000000 0.400000
                  CHANNELS 3 Zrotation Xrotation Yrotation
                  JOINT LeftHandRing2
                  {
                    OFFSET 2.600000 0.000000 0.000000
                    CHANNELS 3 Zrotation Xrotation Yrotation
                    JOINT LeftHandRing3
                    {
                      OFFSET 1.600000 0.000000 0.000000
                      CHANNELS 3 Zrotation Xrotation Yrotation
                      End Site
                      {
                        OFFSET 1.300000 0.000000 0.000000
                      }
                    }
                  }
                }
                JOINT LeftHandPinky1
                {
                  OFFSET 6.500000 -2.000000 0.500000
                  CHANNELS 3 Zrotation Xrotation Yrotation
                  JOINT LeftHandPinky2
                  {
                    OFFSET 1.900000 0.000000 0.000000
                    CHANNELS 3 Zrotation Xrotation Yrotation
                    JOINT LeftHandPinky3
                    {
                      OFFSET 1.400000 0.000000 0.000000
                      CHANNELS 3 Zrotation Xrotation Yrotation
                      End Site
                      {
                        OFFSET 1.300000 0.000000 0.000000
                      }
                    }
                  }
                }
              }
            }
          }
        }
        JOINT RightShoulder
        {
          OFFSET -6.000000 8.000000 0.000000
          CHANNELS 3 Zrotation Xrotation Yrotation
          JOINT RightArm
          {
            OFFSET -12.000000 0.000000 0.000000
            CHANNELS 3 Zrotation Xrotation Yrotation
            JOINT RightForeArm
            {
              OFFSET -24.000000 0.000000 0.000000
              CHANNELS 3 Zrotation Xrotation Yrotation
              JOINT RightHand
              {
                OFFSET -22.000000 0.000000 0.000000
                CHANNELS 3 Zrotation Xrotation Yrotation
                JOINT RightHandThumb1
                {
                  OFFSET -1.800000 -1.400000 0.500000
                  CHANNELS 3 Zrotation Xrotation Yrotation
                  JOINT RightHandThumb2
                  {
                    OFFSET -2.400000 0.000000 0.000000
                    CHANNELS 3 Zrotation Xrotation Yrotation
                    JOINT RightHandThumb3
                    {
                      OFFSET -1.900000 0.000000 0.000000
                      CHANNELS 3 Zrotation Xrotation Yrotation
                      End Site
                      {
                        OFFSET -1.600000 0.000000 0.000000
                      }
                    }
                  }
                }
                JOINT RightHandIndex1
                {
                  OFFSET -6.600000 1.200000 0.300000
                  CHANNELS 3 Zrotation Xrotation Yrotation
                  JOINT RightHandIndex2
                  {
                    OFFSET -2.000000 0.000000 0.000000
                    CHANNELS 3 Zrotation Xrotation Yrotation
                    JOINT RightHandIndex3
                    {
                      OFFSET -1.200000 0.000000 0.000000
                      CHANNELS 3 Zrotation Xrotation Yrotation
                      End Site
                      {
                        OFFSET -1.000000 0.000000 0.000000
                      }
                    }
                  }
                }
                JOINT RightHandMiddle1
                {
                  OFFSET -7.200000 0.000000 0.300000
                  CHANNELS 3 Zrotation Xrotation Yrotation
                  JOINT RightHandMiddle2
                  {
                    OFFSET -3.000000 0.000000 0.000000
                    CHANNELS 3 Zrotation Xrotation Yrotation
                    JOINT RightHandMiddle3
                    {
                      OFFSET -2.000000 0.000000 0.000000
                      CHANNELS 3 Zrotation Xrotation Yrotation
                      End Site
                      {
                        OFFSET -1.600000 0.000000 0.000000
                      }
                    }
                  }
                }
                JOINT RightHandRing1
                {
                  OFFSET -7.100000 -1.000000 0.400000
                  CHANNELS 3 Zrotation Xrotation Yrotation
                  JOINT RightHandRing2
                  {
                    OFFSET -2.600000 0.000000 0.000000
                    CHANNELS 3 Zrotation Xrotation Yrotation
                    JOINT RightHandRing3
                    {
                      OFFSET -1.600000 0.000000 0.000000
                      CHANNELS 3 Zrotation Xrotation Yrotation
                      End Site
                      {
                        OFFSET -1.300000 0.000000 0.000000
                      }
                    }
                  }
                }
                JOINT RightHandPinky1
                {
                  OFFSET -6.500000 -2.000000 0.500000
                  CHANNELS 3 Zrotation Xrotation Yrotation
                  JOINT RightHandPinky2
                  {
                    OFFSET -1.900000 0.000000 0.000000
                    CHANNELS 3 Zrotation Xrotation Yrotation
                    JOINT RightHandPinky3
                    {
                      OFFSET -1.400000 0.000000 0.000000
                      CHANNELS 3 Zrotation Xrotation Yrotation
                      End Site
                      {
                        OFFSET -1.300000 0.000000 0.000000
                      }
                    }
                  }
                }
              }
            }
          }
        }
      }
    }
  }
  JOINT LeftUpLeg
  {
    OFFSET 10.000000 -5.000000 0.000000
    CHANNELS 3 Zrotation Xrotation Yrotation
    JOINT LeftLeg
    {
      OFFSET 0.000000 -42.000000 0.000000
      CHANNELS 3 Zrotation Xrotation Yrotation
      JOINT LeftFoot
      {
        OFFSET 0.000000 -42.000000 4.000000
        CHANNELS 3 Zrotation Xrotation Yrotation
        End Site
        {
          OFFSET 0.000000 0.000000 12.000000
        }
      }
    }
  }
  JOINT RightUpLeg
  {
    OFFSET -10.000000 -5.000000 0.000000
    CHANNELS 3 Zrotation Xrotation Yrotation
    JOINT RightLeg
    {
      OFFSET 0.000000 -42.000000 0.000000
      CHANNELS 3 Zrotation Xrotation Yrotation
      JOINT RightFoot
      {
        OFFSET 0.000000 -42.000000 4.000000
        CHANNELS 3 Zrotation Xrotation Yrotation
        End Site
        {
          OFFSET 0.000000 0.000000 12.000000
        }
      }
    }
  }
}
MOTION
Frames: 7
Frame Time: 0.033333
0.0000 95.0000 0.0000 0.0000 0.0000 0.0000 0.0000 0.0000 0.0000 0.0000 0.0000 0.0000 0.0000 0.0000 0.0000 0.0000 0.0000 0.0000 0.0000 0.0000 0.0000 0.0000 0.0000 0.0000 -77.0593 3.4799 4.3694 -14.3903 -8.7222 15.4553 -170.9314 -27.1946 153.5808 44.3738 -8.0484 6.7349 15.7222 0.0000 0.0000 10.5777 0.0000 0.0000 -12.2381 0.5530 -0.0730 2.3799 0.0000 0.0000 1.6619 0.0000 0.0000 -4.8712 0.0525 -3.5386 1.3250 0.0000 0.0000 2.6618 0.0000 0.0000 2.1933 -0.5232 -3.3011 4.0790 0.0000 0.0000 9.5301 0.0000 0.0000 9.5335 -1.2451 -2.4251 10.4067 0.0000 0.0000 18.8082 0.0000 0.0000 0.0000 0.0000 0.0000 91.3303 1.5538 -1.5181 -2.4991 8.2127 7.7592 161.7295 2.5314 -177.9987 -54.5273 -9.9977 -9.8980 20.3819 0.0000 0.0000 12.6949 0.0000 0.0000 16.8489 0.6451 -3.2541 110.0000 0.0000 0.0000 37.1906 0.0000 0.0000 9.9411 0.3210 1.0821 110.0000 0.0000 0.0000 14.8012 0.0000 0.0000 2.0410 -0.0454 1.0104 110.0000 0.0000 0.0000 10.2179 0.0000 0.0000 -8.6345 -1.2999 2.8727 110.0000 0.0000 0.0000 18.4676 0.0000 0.0000 0.0000 0.0000 0.0000 0.0000 0.0000 0.0000 0.0000 0.0000 0.0000 0.0000 0.0000 0.0000 0.0000 0.0000 0.0000 0.0000 0.0000 0.0000
0.0000 95.0000 0.0000 0.0000 0.0000 0.0000 0.0000 0.0000 0.0000 0.0000 0.0000 0.0000 0.0000 0.0000 0.0000 0.0000 0.0000 0.0000 0.0000 0.0000 0.0000 0.0000 0.0000 0.0000 -77.1979 3.2123 4.0235 -14.5547 -8.7028 15.3571 -171.4090 -26.9422 154.1301 44.3738 -8.0484 6.7349 15.7222 0.0000 0.0000 10.5777 0.0000 0.0000 -12.2381 0.5530 -0.0730 2.3799 0.0000 0.0000 1.6619 0.0000 0.0000 -4.8712 0.0525 -3.5386 1.3250 0.0000 0.0000 2.6618 0.0000 0.0000 2.1933 -0.5232 -3.3011 4.0790 0.0000 0.0000 9.5301 0.0000 0.0000 9.5335 -1.2451 -2.4251 10.4067 0.0000 0.0000 18.8082 0.0000 0.0000 0.0000 0.0000 0.0000 91.2111 1.2027 -1.1776 -2.5550 8.3929 7.9214 161.5384 3.0579 -178.5204 -54.5273 -9.9977 -9.8980 20.3819 0.0000 0.0000 12.6949 0.0000 0.0000 16.8489 0.6451 -3.2541 110.0000 0.0000 0.0000 37.1906 0.0000 0.0000 9.9411 0.3210 1.0821 110.0000 0.0000 0.0000 14.8012 0.0000 0.0000 2.0410 -0.0454 1.0104 110.0000 0.0000 0.0000 10.2179 0.0000 0.0000 -8.6345 -1.2999 2.8727 110.0000 0.0000 0.0000 18.4676 0.0000 0.0000 0.0000 0.0000 0.0000 0.0000 0.0000 0.0000 0.0000 0.0000 0.0000 0.0000 0.0000 0.0000 0.0000 0.0000 0.0000 0.0000 0.0000 0.0000
0.0000 95.0000 0.0000 0.0000 0.0000 0.0000 0.0000 0.0000 0.0000 0.0000 0.0000 0.0000 0.0000 0.0000 0.0000 0.0000 0.0000 0.0000 0.0000 0.0000 0.0000 0.0000 0.0000 0.0000 -77.1563 2.9995 3.7598 -14.9669 -8.5937 15.2755 -171.9526 -26.7551 154.6481 44.3738 -8.0484 6.7349 15.7222 0.0000 0.0000 10.5777 0.0000 0.0000 -12.2381 0.5530 -0.0730 2.3799 0.0000 0.0000 1.6619 0.0000 0.0000 -4.8712 0.0525 -3.5386 1.3250 0.0000 0.0000 2.6618 0.0000 0.0000 2.1933 -0.5232 -3.3011 4.0790 0.0000 0.0000 9.5301 0.0000 0.0000 9.5335 -1.2451 -2.4251 10.4067 0.0000 0.0000 18.8082 0.0000 0.0000 0.0000 0.0000 0.0000 91.2129 1.1256 -1.1020 -2.5928 8.2295 7.7596 161.5216 2.9752 -178.4336 -54.5273 -9.9977 -9.8980 20.3819 0.0000 0.0000 12.6949 0.0000 0.0000 16.8489 0.6451 -3.2541 110.0000 0.0000 0.0000 37.1906 0.0000 0.0000 9.9411 0.3210 1.0821 110.0000 0.0000 0.0000 14.8012 0.0000 0.0000 2.0410 -0.0454 1.0104 110.0000 0.0000 0.0000 10.2179 0.0000 0.0000 -8.6345 -1.2999 2.8727 110.0000 0.0000 0.0000 18.4676 0.0000 0.0000 0.0000 0.0000 0.0000 0.0000 0.0000 0.0000 0.0000 0.0000 0.0000 0.0000 0.0000 0.0000 0.0000 0.0000 0.0000 0.0000 0.0000 0.0000
0.0000 95.0000 0.0000 0.0000 0.0000 0.0000 0.0000 0.0000 0.0000 0.0000 0.0000 0.0000 0.0000 0.0000 0.0000 0.0000 0.0000 0.0000 0.0000 0.0000 0.0000 0.0000 0.0000 0.0000 -77.4840 2.8555 3.5584 -14.5147 -8.8309 15.3431 -171.7875 -26.6581 154.6460 44.3738 -8.0484 6.7349 15.7222 0.0000 0.0000 10.5777 0.0000 0.0000 -12.2381 0.5530 -0.0730 2.3799 0.0000 0.0000 1.6619 0.0000 0.0000 -4.8712 0.0525 -3.5386 1.3250 0.0000 0.0000 2.6618 0.0000 0.0000 2.1933 -0.5232 -3.3011 4.0790 0.0000 0.0000 9.5301 0.0000 0.0000 9.5335 -1.2451 -2.4251 10.4067 0.0000 0.0000 18.8082 0.0000 0.0000 0.0000 0.0000 0.0000 91.1194 1.0081 -0.9886 -2.6636 8.3129 7.8362 161.3499 3.1823 -178.6308 -54.5273 -9.9977 -9.8980 20.3819 0.0000 0.0000 12.6949 0.0000 0.0000 16.8489 0.6451 -3.2541 110.0000 0.0000 0.0000 37.1906 0.0000 0.0000 9.9411 0.3210 1.0821 110.0000 0.0000 0.0000 14.8012 0.0000 0.0000 2.0410 -0.0454 1.0104 110.0000 0.0000 0.0000 10.2179 0.0000 0.0000 -8.6345 -1.2999 2.8727 110.0000 0.0000 0.0000 18.4676 0.0000 0.0000 0.0000 0.0000 0.0000 0.0000 0.0000 0.0000 0.0000 0.0000 0.0000 0.0000 0.0000 0.0000 0.0000 0.0000 0.0000 0.0000 0.0000 0.0000
0.0000 95.0000 0.0000 0.0000 0.0000 0.0000 0.0000 0.0000 0.0000 0.0000 0.0000 0.0000 0.0000 0.0000 0.0000 0.0000 0.0000 0.0000 0.0000 0.0000 0.0000 0.0000 0.0000 0.0000 -77.6794 2.6186 3.2519 -14.2220 -9.0580 15.4619 -171.6745 -26.5022 154.7349 44.3738 -8.0484 6.7349 15.7222 0.0000 0.0000 10.5777 0.0000 0.0000 -12.2381 0.5530 -0.0730 2.3799 0.0000 0.0000 1.6619 0.0000 0.0000 -4.8712 0.0525 -3.5386 1.3250 0.0000 0.0000 2.6618 0.0000 0.0000 2.1933 -0.5232 -3.3011 4.0790 0.0000 0.0000 9.5301 0.0000 0.0000 9.5335 -1.2451 -2.4251 10.4067 0.0000 0.0000 18.8082 0.0000 0.0000 0.0000 0.0000 0.0000 90.9744 1.0799 -1.0617 -2.4753 8.5181 8.0759 161.3658 3.3267 -178.7816 -54.5273 -9.9977 -9.8980 20.3819 0.0000 0.0000 12.6949 0.0000 0.0000 16.8489 0.6451 -3.2541 110.0000 0.0000 0.0000 37.1906 0.0000 0.0000 9.9411 0.3210 1.0821 110.0000 0.0000 0.0000 14.8012 0.0000 0.0000 2.0410 -0.0454 1.0104 110.0000 0.0000 0.0000 10.2179 0.0000 0.0000 -8.6345 -1.2999 2.8727 110.0000 0.0000 0.0000 18.4676 0.0000 0.0000 0.0000 0.0000 0.0000 0.0000 0.0000 0.0000 0.0000 0.0000 0.0000 0.0000 0.0000 0.0000 0.0000 0.0000 0.0000 0.0000 0.0000 0.0000
0.0000 95.0000 0.0000 0.0000 0.0000 0.0000 0.0000 0.0000 0.0000 0.0000 0.0000 0.0000 0.0000 0.0000 0.0000 0.0000 0.0000 0.0000 0.0000 0.0000 0.0000 0.0000 0.0000 0.0000 -77.7789 2.1895 2.7143 -14.0942 -9.1371 15.3755 -171.8386 -26.0193 155.3194 44.3738 -8.0484 6.7349 15.7222 0.0000 0.0000 10.5777 0.0000 0.0000 -12.2381 0.5530 -0.0730 2.3799 0.0000 0.0000 1.6619 0.0000 0.0000 -4.8712 0.0525 -3.5386 1.3250 0.0000 0.0000 2.6618 0.0000 0.0000 2.1933 -0.5232 -3.3011 4.0790 0.0000 0.0000 9.5301 0.0000 0.0000 9.5335 -1.2451 -2.4251 10.4067 0.0000 0.0000 18.8082 0.0000 0.0000 0.0000 0.0000 0.0000 90.9225 0.9908 -0.9750 -2.5411 8.9526 8.4809 161.1937 3.8375 -179.2959 -54.5273 -9.9977 -9.8980 20.3819 0.0000 0.0000 12.6949 0.0000 0.0000 16.8489 0.6451 -3.2541 110.0000 0.0000 0.0000 37.1906 0.0000 0.0000 9.9411 0.3210 1.0821 110.0000 0.0000 0.0000 14.8012 0.0000 0.0000 2.0410 -0.0454 1.0104 110.0000 0.0000 0.0000 10.2179 0.0000 0.0000 -8.6345 -1.2999 2.8727 110.0000 0.0000 0.0000 18.4676 0.0000 0.0000 0.0000 0.0000 0.0000 0.0000 0.0000 0.0000 0.0000 0.0000 0.0000 0.0000 0.0000 0.0000 0.0000 0.0000 0.0000 0.0000 0.0000 0.0000
0.0000 95.0000 0.0000 0.0000 0.0000 0.0000 0.0000 0.0000 0.0000 0.0000 0.0000 0.0000 0.0000 0.0000 0.0000 0.0000 0.0000 0.0000 0.0000 0.0000 0.0000 0.0000 0.0000 0.0000 -77.8831 1.7928 2.2184 -14.3744 -9.4471 15.8033 -172.1611 -26.0277 155.5018 44.3738 -8.0484 6.7349 15.7222 0.0000 0.0000 10.5777 0.0000 0.0000 -12.2381 0.5530 -0.0730 2.3799 0.0000 0.0000 1.6619 0.0000 0.0000 -4.8712 0.0525 -3.5386 1.3250 0.0000 0.0000 2.6618 0.0000 0.0000 2.1933 -0.5232 -3.3011 4.0790 0.0000 0.0000 9.5301 0.0000 0.0000 9.5335 -1.2451 -2.4251 10.4067 0.0000 0.0000 18.8082 0.0000 0.0000 0.0000 0.0000 0.0000 90.9280 1.2362 -1.2163 -2.6617 9.4638 8.9593 161.0106 4.0960 -179.5500 -54.5273 -9.9977 -9.8980 20.3819 0.0000 0.0000 12.6949 0.0000 0.0000 16.8489 0.6451 -3.2541 110.0000 0.0000 0.0000 37.1906 0.0000 0.0000 9.9411 0.3210 1.0821 110.0000 0.0000 0.0000 14.8012 0.0000 0.0000 2.0410 -0.0454 1.0104 110.0000 0.0000 0.0000 10.2179 0.0000 0.0000 -8.6345 -1.2999 2.8727 110.0000 0.0000 0.0000 18.4676 0.0000 0.0000 0.0000 0.0000 0.0000 0.0000 0.0000 0.0000 0.0000 0.0000 0.0000 0.0000 0.0000 0.0000 0.0000 0.0000 0.0000 0.0000 0.0000 0.0000
